<svg width="512" height="512" viewBox="0 0 512 512" fill="none" xmlns="http://www.w3.org/2000/svg">
<g id="Type=Nodemon-regular">
<g id="Technologies/Nodemon/Regular" clip-path="url(#clip0_24_1391)">
<g id="nodemon-regular">
<path id="Shape" fill-rule="evenodd" clip-rule="evenodd" d="M244.1 501.189C251.392 505.404 260.387 505.404 267.678 501.189L463.023 388.466C470.328 384.254 474.825 376.467 474.825 368.03V142.411C474.825 133.98 470.327 126.198 463.035 121.976L267.693 9.1618C260.387 4.94672 251.392 4.94672 244.087 9.1618L48.7964 121.976C41.4981 126.196 37 133.982 37 142.411V368.043C37 376.467 41.4981 384.252 48.8013 388.464L244.099 501.187" fill="#76D04B"/>
<path id="Shape_2" fill-rule="evenodd" clip-rule="evenodd" d="M382.379 201.396L373.667 196.382C387.063 176.624 395.068 146.917 385.03 102.504C385.03 102.504 362.426 165.858 316.984 163.759L263.776 133.14C261.769 131.949 259.52 131.336 257.246 131.242H256.02C253.751 131.337 251.505 131.951 249.47 133.14L196.258 163.759C150.821 165.864 128.208 102.504 128.208 102.504C118.165 146.915 126.183 176.622 139.575 196.382L130.866 201.397C126.441 203.947 123.69 208.683 123.69 213.848L123.952 397.635C123.952 400.2 125.28 402.575 127.53 403.823C129.729 405.151 132.451 405.151 134.646 403.823L205.133 363.462C209.593 360.812 212.305 356.139 212.305 351.031V265.17C212.305 260.05 215.017 255.304 219.458 252.767L249.472 235.483C251.708 234.181 254.155 233.548 256.653 233.548C259.095 233.548 261.605 234.181 263.779 235.481L293.784 252.765C298.226 255.3 300.948 260.049 300.948 265.167V351.027C300.948 356.135 303.696 360.845 308.128 363.458L378.597 403.82C380.809 405.145 383.57 405.145 385.762 403.82C387.945 402.572 389.319 400.195 389.319 397.63L389.548 213.843C389.543 208.674 386.833 203.939 382.381 201.392L382.379 201.396Z" fill="#4F4D3F"/>
</g>
</g>
</g>
<defs>
<clipPath id="clip0_24_1391">
<rect width="439" height="500" fill="white" transform="translate(37 6)"/>
</clipPath>
</defs>
</svg>
